<svg width="68" height="68" viewBox="0 0 68 68" fill="none" xmlns="http://www.w3.org/2000/svg">
<path d="M62.3332 52.7142C62.3332 53.2778 62.1093 53.8183 61.7108 54.2168C61.3123 54.6153 60.7718 54.8392 60.2082 54.8392H45.7582C45.2849 56.604 44.2426 58.1634 42.7929 59.2755C41.3432 60.3877 39.567 60.9905 37.7398 60.9905C35.9127 60.9905 34.1365 60.3877 32.6868 59.2755C31.2371 58.1634 30.1948 56.604 29.7215 54.8392H7.7915C7.22792 54.8392 6.68742 54.6153 6.2889 54.2168C5.89039 53.8183 5.6665 53.2778 5.6665 52.7142C5.6665 52.1506 5.89039 51.6101 6.2889 51.2116C6.68742 50.8131 7.22792 50.5892 7.7915 50.5892H29.7215C30.1948 48.8244 31.2371 47.265 32.6868 46.1528C34.1365 45.0407 35.9127 44.4379 37.7398 44.4379C39.567 44.4379 41.3432 45.0407 42.7929 46.1528C44.2426 47.265 45.2849 48.8244 45.7582 50.5892H60.2082C60.7718 50.5892 61.3123 50.8131 61.7108 51.2116C62.1093 51.6101 62.3332 52.1506 62.3332 52.7142ZM62.3332 15.2858C62.3332 15.8494 62.1093 16.3899 61.7108 16.7884C61.3123 17.187 60.7718 17.4108 60.2082 17.4108H53.2665C52.7932 19.1757 51.7509 20.735 50.3012 21.8472C48.8515 22.9593 47.0753 23.5622 45.2482 23.5622C43.421 23.5622 41.6449 22.9593 40.1951 21.8472C38.7454 20.735 37.7031 19.1757 37.2298 17.4108H7.7915C7.51244 17.4108 7.23612 17.3559 6.9783 17.2491C6.72048 17.1423 6.48623 16.9858 6.2889 16.7884C6.09158 16.5911 5.93505 16.3569 5.82826 16.099C5.72147 15.8412 5.6665 15.5649 5.6665 15.2858C5.6665 15.0068 5.72147 14.7305 5.82826 14.4726C5.93505 14.2148 6.09158 13.9806 6.2889 13.7832C6.48623 13.5859 6.72048 13.4294 6.9783 13.3226C7.23612 13.2158 7.51244 13.1608 7.7915 13.1608H37.2298C37.7031 11.396 38.7454 9.83665 40.1951 8.72449C41.6449 7.61233 43.421 7.00952 45.2482 7.00952C47.0753 7.00952 48.8515 7.61233 50.3012 8.72449C51.7509 9.83665 52.7932 11.396 53.2665 13.1608H60.2082C60.4883 13.157 60.7663 13.2094 61.0259 13.3148C61.2854 13.4203 61.5212 13.5767 61.7193 13.7747C61.9174 13.9728 62.0737 14.2086 62.1792 14.4681C62.2846 14.7277 62.337 15.0057 62.3332 15.2858ZM62.3332 33.9858C62.337 34.266 62.2846 34.544 62.1792 34.8035C62.0737 35.0631 61.9174 35.2988 61.7193 35.4969C61.5212 35.695 61.2854 35.8514 61.0259 35.9568C60.7663 36.0623 60.4883 36.1147 60.2082 36.1108H27.0582C26.5849 37.8757 25.5426 39.435 24.0929 40.5472C22.6432 41.6593 20.867 42.2622 19.0398 42.2622C17.2127 42.2622 15.4365 41.6593 13.9868 40.5472C12.5371 39.435 11.4948 37.8757 11.0215 36.1108H7.7915C7.22792 36.1108 6.68742 35.887 6.2889 35.4884C5.89039 35.0899 5.6665 34.5494 5.6665 33.9858C5.6665 33.4223 5.89039 32.8818 6.2889 32.4832C6.68742 32.0847 7.22792 31.8608 7.7915 31.8608H11.0215C11.4948 30.096 12.5371 28.5366 13.9868 27.4245C15.4365 26.3123 17.2127 25.7095 19.0398 25.7095C20.867 25.7095 22.6432 26.3123 24.0929 27.4245C25.5426 28.5366 26.5849 30.096 27.0582 31.8608H60.2082C60.7718 31.8608 61.3123 32.0847 61.7108 32.4832C62.1093 32.8818 62.3332 33.4223 62.3332 33.9858Z" fill="#737373"/>
</svg>
